<?xml version="1.0" standalone="no"?>
<!DOCTYPE svg PUBLIC "-//W3C//DTD SVG 20010904//EN"
 "http://www.w3.org/TR/2001/REC-SVG-20010904/DTD/svg10.dtd">
<svg version="1.0"
  xmlns="http://www.w3.org/2000/svg" width="512.000000pt" height="512.000000pt" viewBox="0 0 512.000000 512.000000" preserveAspectRatio="xMidYMid meet">

  <g transform="translate(0.000000,512.000000) scale(0.100000,-0.100000)" fill="#b5495b" stroke="none">
    <path d="M0 2560 l0 -2560 898 0 897 1 -68 36 c-131 70 -230 208 -278 389 -27
101 -38 386 -19 502 28 177 119 349 234 444 112 94 239 138 396 138 159 0 286
-43 383 -131 l42 -38 -64 -64 -63 -65 -56 39 c-160 113 -382 102 -504 -24 -56
-57 -91 -123 -120 -222 -20 -71 -23 -101 -22 -270 0 -206 13 -292 57 -389 84
-183 279 -242 510 -156 l57 21 0 215 0 214 -134 0 -134 0 -11 63 c-6 35 -11
76 -11 90 l0 27 255 0 255 0 0 -360 0 -359 -32 -17 c-18 -10 -69 -32 -113 -50
l-80 -33 187 -1 187 0 29 93 c17 50 112 346 212 657 99 311 194 603 209 650
l28 85 137 0 138 0 78 -240 c43 -132 142 -438 220 -680 78 -242 150 -468 161
-503 l21 -62 149 0 149 0 2 743 3 742 110 0 110 0 3 -647 2 -648 328 0 c181 0
331 -2 333 -5 3 -2 0 -45 -6 -95 l-11 -90 33 0 33 0 -1 1053 c0 861 -3 1045
-13 1012 -18 -59 -33 -83 -85 -138 -52 -55 -143 -105 -241 -132 -53 -14 -119
-19 -352 -22 l-288 -5 0 747 0 747 278 -5 c221 -3 289 -7 337 -21 198 -56 289
-153 302 -318 12 -160 -71 -292 -214 -342 l-38 -13 68 -22 c37 -13 88 -37 114
-55 51 -35 107 -109 122 -160 6 -19 10 515 10 1382 l1 1412 -2560 0 -2560 0 0
-2560z m1593 658 c3 -24 34 -299 69 -611 34 -313 64 -565 65 -560 3 8 163
1031 163 1039 0 2 56 4 124 4 l124 0 6 -37 c9 -57 114 -771 133 -902 9 -63 18
-110 20 -105 1 5 34 263 73 574 39 311 73 582 77 603 l6 37 98 0 c80 0 99 -3
99 -14 0 -8 -45 -325 -100 -703 -55 -378 -103 -707 -107 -731 l-6 -43 -136 3
-136 3 -76 520 c-41 286 -77 526 -80 533 -2 7 -35 -203 -73 -465 -38 -263 -73
-504 -78 -535 l-10 -58 -138 0 -138 0 -6 38 c-4 20 -42 305 -86 632 -44 327
-86 644 -95 704 -8 60 -15 111 -15 113 0 2 49 3 109 3 l108 0 6 -42z m2182
-25 c-4 -37 -11 -77 -16 -90 l-9 -23 -305 0 -305 0 0 -230 0 -230 270 0 270 0
0 -90 0 -90 -270 0 -270 0 0 -245 0 -245 330 0 330 0 0 -90 0 -90 -445 0 -445
0 0 745 0 745 436 0 436 0 -7 -67z"/>
    <path d="M4360 2865 l0 -225 143 0 c78 0 158 5 178 10 99 28 149 100 149 215
-1 171 -86 225 -357 225 l-113 0 0 -225z"/>
    <path d="M4360 2204 l0 -256 168 4 c180 6 226 16 290 65 48 37 72 93 72 177 0
93 -17 143 -65 192 -59 59 -123 74 -313 74 l-152 0 0 -256z"/>
    <path d="M3147 917 c-59 -199 -108 -365 -107 -369 0 -5 99 -8 220 -8 121 0
220 3 220 8 1 14 -215 732 -220 732 -3 0 -54 -163 -113 -363z"/>
    <path d="M2928 188 l-54 -183 193 -3 c106 -1 280 -1 386 0 l193 3 -52 172
c-28 94 -55 176 -58 182 -5 8 -95 11 -280 11 l-273 0 -55 -182z"/>
  </g>
</svg>
